# xmcd CD database file
#
# Track frame offsets:
#	150
#	25252
#	39584
#	67467
#	85020
#	111641
#	134675
#
# Disc length: 2106 seconds
#
# Revision: 0
# Processed by: cddbd v1.5PL3 Copyright (c) Steve Scherf et al.
# Submitted via: CDex 1.51
#
DISCID=69083807
DTITLE=Overland Express - OE 03-04
DYEAR=2004
DGENRE=Jazz
TTITLE0=Blues for Thad
TTITLE1=Louisiana Bee-Bop
TTITLE2=Better Git Hit in Your Soul
TTITLE3=I Let a Song Go Out of my Heart
TTITLE4=Bundle O' Funk
TTITLE5=Power to Spare
TTITLE6=Funky Cha Cha
EXTD=YEAR: 2004
EXTT0=
EXTT1=
EXTT2=
EXTT3=
EXTT4=
EXTT5=
EXTT6=
PLAYORDER=
